<?xml version="1.0" encoding="UTF-8" standalone="no"?>
<!DOCTYPE svg PUBLIC "-//W3C//DTD SVG 1.1//EN" "http://www.w3.org/Graphics/SVG/1.1/DTD/svg11.dtd">
<svg width="100%" height="100%" viewBox="0 0 687 719" version="1.1" xmlns="http://www.w3.org/2000/svg" xmlns:xlink="http://www.w3.org/1999/xlink" xml:space="preserve" xmlns:serif="http://www.serif.com/" style="fill-rule:evenodd;clip-rule:evenodd;stroke-linejoin:round;stroke-miterlimit:2;">
    <g transform="matrix(1,0,0,1,-168.757,-34.9189)">
        <g transform="matrix(-1,-1.22465e-16,1.22465e-16,-1,965.997,624.568)">
            <path d="M453.997,183.568L532.038,339.649L375.957,339.649L453.997,183.568Z" style="fill:rgb(77,77,77);"/>
            <g transform="matrix(-1,1.22465e-16,-1.22465e-16,-1,909.008,962.405)">
                <rect x="440.822" y="372.757" width="28.378" height="250" style="fill:rgb(77,77,77);"/>
            </g>
        </g>
        <path d="M796.005,459.365L796.005,697.081L227.995,697.081L227.995,459.365C194.214,466.211 168.757,496.095 168.757,531.878L168.757,679.851C168.757,720.686 201.909,753.838 242.743,753.838L781.257,753.838C822.091,753.838 855.243,720.686 855.243,679.851L855.243,531.878C855.243,496.095 829.786,466.211 796.005,459.365ZM781.257,457.892L242.743,457.892C242.743,457.892 781.257,457.892 781.257,457.892Z" style="fill:rgb(77,77,77);"/>
        <g transform="matrix(1.18776,0,0,1.18776,110.365,224.26)">
            <text x="102.984px" y="384px" style="font-family:'ArialMT', 'Arial', sans-serif;font-size:225.103px;">HDF</text>
        </g>
    </g>
</svg>
